<?xml version="1.0" encoding="UTF-8"?>
<!DOCTYPE svg PUBLIC "-//W3C//DTD SVG 1.1//EN" "http://www.w3.org/Graphics/SVG/1.1/DTD/svg11.dtd">
<svg width="160mm" height="90mm" viewBox="0 0 16000 9000" version="1.1" xmlns="http://www.w3.org/2000/svg" xmlns:xlink="http://www.w3.org/1999/xlink" stroke-width="28.222" stroke-linejoin="round" xml:space="preserve">
 <path fill="rgb(255,255,255)" stroke="none" d="M 8000,9018 L 0,9018 0,19 15999,19 15999,9018 8000,9018 Z"/>
 <path fill="rgb(255,0,0)" stroke="none" d="M 7999,1241 C 7600,1241 7204,1303 6825,1426 6446,1550 6089,1732 5766,1966 5444,2200 5160,2484 4926,2806 4692,3129 4510,3486 4386,3865 4263,4244 4201,4639 4201,5038 4201,5437 4263,5833 4386,6212 4510,6591 4692,6948 4926,7271 5038,7425 5162,7571 5296,7707 L 6647,6372 C 6580,6304 6519,6232 6462,6154 6345,5993 6254,5814 6193,5625 6131,5435 6100,5237 6100,5038 6100,4839 6131,4641 6193,4452 6254,4263 6345,4084 6462,3923 6580,3761 6721,3620 6883,3502 7044,3385 7223,3294 7412,3233 7602,3171 7800,3140 7999,3140 L 7999,1241 Z"/>
 <path fill="rgb(255,128,0)" stroke="none" d="M 5296,7707 C 5441,7854 5599,7989 5766,8111 6089,8345 6446,8527 6825,8651 7204,8774 7600,8837 7999,8837 8397,8837 8793,8774 9172,8651 9551,8527 9908,8345 10231,8111 10553,7877 10837,7593 11071,7271 11187,7111 11290,6943 11380,6767 L 9689,5902 C 9644,5990 9593,6075 9535,6154 9417,6316 9276,6457 9114,6575 8953,6692 8774,6783 8585,6844 8395,6906 8197,6937 7999,6937 7800,6937 7602,6906 7412,6844 7223,6783 7044,6692 6883,6575 6799,6514 6720,6446 6647,6372 L 5296,7707 Z"/>
 <path fill="rgb(255,211,32)" stroke="none" d="M 11380,6767 C 11472,6588 11549,6403 11611,6212 11734,5833 11797,5437 11797,5038 11797,4639 11734,4244 11611,3865 11487,3486 11305,3129 11071,2806 10837,2484 10553,2200 10231,1966 10110,1878 9985,1798 9855,1725 L 8927,3382 C 8991,3419 9054,3459 9114,3502 9276,3620 9417,3761 9535,3923 9652,4084 9743,4263 9804,4452 9866,4641 9897,4839 9897,5038 9897,5237 9866,5435 9804,5625 9773,5720 9735,5813 9689,5902 L 11380,6767 Z"/>
 <path fill="rgb(87,157,28)" stroke="none" d="M 9855,1725 C 9638,1604 9409,1503 9172,1426 8855,1323 8525,1262 8192,1245 L 8095,3142 C 8262,3151 8426,3181 8585,3233 8703,3271 8818,3321 8927,3382 L 9855,1725 Z"/>
 <path fill="rgb(42,96,153)" stroke="none" d="M 8192,1245 C 8127,1242 8063,1241 7999,1241 L 7999,3140 C 8030,3140 8063,3141 8095,3142 L 8192,1245 Z"/>
 <text class="TextShape"><tspan class="TextParagraph" font-family="Vafle VUT" font-size="353px" font-weight="400"><tspan class="TextPosition" x="5158" y="4033"><tspan fill="rgb(0,0,0)" stroke="none">46</tspan></tspan></tspan></text>
 <text class="TextShape"><tspan class="TextParagraph" font-family="Vafle VUT" font-size="353px" font-weight="400"><tspan class="TextPosition" x="8262" y="7947"><tspan fill="rgb(0,0,0)" stroke="none">37</tspan></tspan></tspan></text>
 <text class="TextShape"><tspan class="TextParagraph" font-family="Vafle VUT" font-size="353px" font-weight="400"><tspan class="TextPosition" x="10527" y="4307"><tspan fill="rgb(0,0,0)" stroke="none">30</tspan></tspan></tspan></text>
 <text class="TextShape"><tspan class="TextParagraph" font-family="Vafle VUT" font-size="353px" font-weight="400"><tspan class="TextPosition" x="8683" y="2395"><tspan fill="rgb(0,0,0)" stroke="none">9</tspan></tspan></tspan></text>
 <text class="TextShape"><tspan class="TextParagraph" font-family="Vafle VUT" font-size="353px" font-weight="400"><tspan class="TextPosition" x="8006" y="2284"><tspan fill="rgb(0,0,0)" stroke="none">1</tspan></tspan></tspan></text>
 <text class="TextShape"><tspan class="TextParagraph" font-family="Vafle VUT" font-size="459px" font-weight="400"><tspan class="TextPosition" x="6148" y="842"><tspan fill="rgb(0,0,0)" stroke="none">Závažnosť opatrení</tspan></tspan></tspan></text>
 <path fill="rgb(255,0,0)" stroke="none" d="M 13617,3713 L 13511,3713 13511,3502 13722,3502 13722,3713 13617,3713 Z"/>
 <path fill="rgb(255,128,0)" stroke="none" d="M 13617,4338 L 13511,4338 13511,4127 13722,4127 13722,4338 13617,4338 Z"/>
 <path fill="rgb(255,211,32)" stroke="none" d="M 13617,4962 L 13511,4962 13511,4751 13722,4751 13722,4962 13617,4962 Z"/>
 <path fill="rgb(87,157,28)" stroke="none" d="M 13617,5587 L 13511,5587 13511,5376 13722,5376 13722,5587 13617,5587 Z"/>
 <path fill="rgb(42,96,153)" stroke="none" d="M 13617,6212 L 13511,6212 13511,6001 13722,6001 13722,6212 13617,6212 Z"/>
 <text class="TextShape"><tspan class="TextParagraph" font-family="Vafle VUT" font-size="353px" font-weight="400"><tspan class="TextPosition" x="13822" y="3700"><tspan fill="rgb(0,0,0)" stroke="none">CRITICAL</tspan></tspan></tspan></text>
 <text class="TextShape"><tspan class="TextParagraph" font-family="Vafle VUT" font-size="353px" font-weight="400"><tspan class="TextPosition" x="13822" y="4325"><tspan fill="rgb(0,0,0)" stroke="none">HIGH</tspan></tspan></tspan></text>
 <text class="TextShape"><tspan class="TextParagraph" font-family="Vafle VUT" font-size="353px" font-weight="400"><tspan class="TextPosition" x="13822" y="4949"><tspan fill="rgb(0,0,0)" stroke="none">MEDIUM</tspan></tspan></tspan></text>
 <text class="TextShape"><tspan class="TextParagraph" font-family="Vafle VUT" font-size="353px" font-weight="400"><tspan class="TextPosition" x="13822" y="5574"><tspan fill="rgb(0,0,0)" stroke="none">LOW</tspan></tspan></tspan></text>
 <text class="TextShape"><tspan class="TextParagraph" font-family="Vafle VUT" font-size="353px" font-weight="400"><tspan class="TextPosition" x="13822" y="6199"><tspan fill="rgb(0,0,0)" stroke="none">NOTICE</tspan></tspan></tspan></text>
</svg>